<svg width="493" height="68" viewBox="0 0 493 68" fill="none" xmlns="http://www.w3.org/2000/svg">
<g filter="url(#filter0_f_13744_114123)">
<ellipse cx="241.5" cy="165.5" rx="241.5" ry="165.5" transform="matrix(-1 0 0 1 330 -129)" fill="#D1CCFF"/>
</g>
<g filter="url(#filter1_f_13744_114123)">
<ellipse cx="113.5" cy="74.5" rx="113.5" ry="74.5" transform="matrix(-1 0 0 1 135 -38)" fill="#7160FF"/>
</g>
<g filter="url(#filter2_f_13744_114123)">
<ellipse cx="130" cy="54.5" rx="130" ry="54.5" transform="matrix(-1 0 0 1 168 -18)" fill="#5754FB"/>
</g>
<path d="M-309.491 -49.8325C-312.655 -35.682 -304.986 -18.6331 -288.081 0.164089C-271.199 18.9363 -245.22 39.3203 -212.082 60.081C-145.814 101.598 -51.0176 144.559 56.5961 179.109C164.21 213.66 264.233 233.248 338.947 236.996C376.308 238.87 407.313 236.781 429.767 230.638C452.25 224.487 466.007 214.317 469.171 200.166C472.335 186.016 464.666 168.967 447.761 150.17C430.879 131.398 404.9 111.014 371.762 90.2528C305.494 48.7357 210.698 5.77507 103.084 -28.7756C-4.52976 -63.3263 -104.552 -82.9146 -179.267 -86.6618C-216.628 -88.5356 -247.633 -86.4468 -270.086 -80.3039C-292.57 -74.1527 -306.326 -63.9829 -309.491 -49.8325Z" stroke="white" stroke-opacity="0.33"/>
<path d="M-176.608 -25.7742C-178.895 -15.5485 -173.97 -3.40834 -162.837 9.86357C-151.719 23.1181 -134.5 37.3889 -112.459 51.8155C-68.3832 80.6648 -5.12719 110.072 66.8597 133.184C138.847 156.296 205.899 168.726 256.108 170.148C281.216 170.86 302.083 168.817 317.243 163.999C332.422 159.175 341.753 151.612 344.04 141.386C346.327 131.16 341.401 119.02 330.269 105.748C319.151 92.4938 301.932 78.223 279.891 63.7964C235.815 34.9471 172.559 5.54002 100.572 -17.5722C28.5854 -40.6845 -38.4671 -53.1145 -88.6762 -54.5366C-113.784 -55.2477 -134.652 -53.205 -149.811 -48.3871C-164.99 -43.5629 -174.321 -36 -176.608 -25.7742Z" stroke="white" stroke-opacity="0.33"/>
<path d="M-94.5418 -5.29979C-96.3319 2.70526 -93.1549 11.9884 -85.6852 21.9816C-78.2215 31.9669 -66.5308 42.5772 -51.4775 53.1781C-21.3758 74.3764 22.0734 95.4686 71.7334 111.413C121.393 127.357 167.823 135.121 202.738 134.797C220.198 134.635 234.75 132.45 245.38 128.274C256.019 124.095 262.644 117.959 264.434 109.954C266.224 101.949 263.047 92.6657 255.578 82.6724C248.114 72.6871 236.423 62.0768 221.37 51.476C191.268 30.2777 147.819 9.18544 98.1592 -6.75851C48.4991 -22.7025 2.06958 -30.4669 -32.845 -30.1429C-50.3052 -29.9808 -64.8572 -27.7961 -75.4876 -23.6201C-86.1266 -19.4409 -92.7516 -13.3048 -94.5418 -5.29979Z" stroke="white" stroke-opacity="0.33"/>
<path d="M3.12204 9.17778C2.33179 12.7116 3.81467 16.8939 7.38699 21.4959C10.9511 26.0874 16.5274 31.0039 23.7171 35.9467C38.0914 45.8287 58.815 55.748 82.4792 63.3456C106.143 70.9433 128.23 74.7687 144.802 74.8224C153.091 74.8493 159.972 73.9322 164.974 72.0912C169.988 70.246 173.018 67.5124 173.808 63.9786C174.598 60.4447 173.115 56.2624 169.543 51.6604C165.979 47.069 160.403 42.1524 153.213 37.2096C138.839 27.3276 118.115 17.4083 94.4508 9.81069C70.7867 2.21304 48.7003 -1.61238 32.1282 -1.66608C23.8391 -1.69293 16.9583 -0.775879 11.9558 1.06512C6.94171 2.91038 3.91228 5.64397 3.12204 9.17778Z" stroke="white" stroke-opacity="0.33"/>
<g style="mix-blend-mode:soft-light">
<circle cx="1" cy="1" r="1" transform="matrix(-1 0 0 1 164 10)" fill="white"/>
</g>
<g style="mix-blend-mode:soft-light">
<circle cx="1" cy="1" r="1" transform="matrix(-1 0 0 1 27 60)" fill="white"/>
</g>
<g style="mix-blend-mode:soft-light">
<circle cx="1" cy="1" r="1" transform="matrix(-1 0 0 1 183 16)" fill="white"/>
</g>
<g style="mix-blend-mode:soft-light">
<circle cx="1" cy="1" r="1" transform="matrix(-1 0 0 1 145 14)" fill="white"/>
</g>
<g style="mix-blend-mode:soft-light">
<circle cx="1.5" cy="1.5" r="1.5" transform="matrix(-1 0 0 1 158 50)" fill="white"/>
</g>
<g style="mix-blend-mode:soft-light">
<circle cx="1.5" cy="1.5" r="1.5" transform="matrix(-1 0 0 1 14 47)" fill="white"/>
</g>
<g style="mix-blend-mode:soft-light">
<circle cx="1.5" cy="1.5" r="1.5" transform="matrix(-1 0 0 1 212 57)" fill="white"/>
</g>
<g style="mix-blend-mode:soft-light">
<circle cx="1.5" cy="1.5" r="1.5" transform="matrix(-1 0 0 1 270 12)" fill="white"/>
</g>
<defs>
<filter id="filter0_f_13744_114123" x="-253" y="-229" width="683" height="531" filterUnits="userSpaceOnUse" color-interpolation-filters="sRGB">
<feFlood flood-opacity="0" result="BackgroundImageFix"/>
<feBlend mode="normal" in="SourceGraphic" in2="BackgroundImageFix" result="shape"/>
<feGaussianBlur stdDeviation="50" result="effect1_foregroundBlur_13744_114123"/>
</filter>
<filter id="filter1_f_13744_114123" x="-192" y="-138" width="427" height="349" filterUnits="userSpaceOnUse" color-interpolation-filters="sRGB">
<feFlood flood-opacity="0" result="BackgroundImageFix"/>
<feBlend mode="normal" in="SourceGraphic" in2="BackgroundImageFix" result="shape"/>
<feGaussianBlur stdDeviation="50" result="effect1_foregroundBlur_13744_114123"/>
</filter>
<filter id="filter2_f_13744_114123" x="-192" y="-118" width="460" height="309" filterUnits="userSpaceOnUse" color-interpolation-filters="sRGB">
<feFlood flood-opacity="0" result="BackgroundImageFix"/>
<feBlend mode="normal" in="SourceGraphic" in2="BackgroundImageFix" result="shape"/>
<feGaussianBlur stdDeviation="50" result="effect1_foregroundBlur_13744_114123"/>
</filter>
</defs>
</svg>
