<svg width="493" height="68" viewBox="0 0 493 68" fill="none" xmlns="http://www.w3.org/2000/svg">
<g filter="url(#filter0_f_13744_115464)">
<ellipse cx="241.5" cy="165.5" rx="241.5" ry="165.5" transform="matrix(-1 0 0 1 330 -129)" fill="#261F60"/>
</g>
<g filter="url(#filter1_f_13744_115464)">
<ellipse cx="113.5" cy="74.5" rx="113.5" ry="74.5" transform="matrix(-1 0 0 1 135 -38)" fill="#7160FF"/>
</g>
<g filter="url(#filter2_f_13744_115464)">
<ellipse cx="130" cy="54.5" rx="130" ry="54.5" transform="matrix(-1 0 0 1 168 -18)" fill="#A392FF"/>
</g>
<path d="M-309.491 -49.8322C-312.656 -35.6818 -304.986 -18.6328 -288.081 0.164334C-271.199 18.9365 -245.22 39.3206 -212.083 60.0812C-145.814 101.598 -51.0181 144.559 56.5957 179.11C164.209 213.66 264.232 233.249 338.947 236.996C376.308 238.87 407.312 236.781 429.766 230.638C452.25 224.487 466.006 214.317 469.17 200.167C472.335 186.016 464.665 168.967 447.76 150.17C430.878 131.398 404.899 111.014 371.762 90.2531C305.493 48.736 210.697 5.77532 103.083 -28.7754C-4.53025 -63.3261 -104.553 -82.9143 -179.268 -86.6616C-216.629 -88.5354 -247.633 -86.4465 -270.087 -80.3036C-292.571 -74.1525 -306.327 -63.9826 -309.491 -49.8322Z" stroke="white" stroke-opacity="0.33"/>
<path d="M-176.609 -25.7735C-178.895 -15.5477 -173.97 -3.40761 -162.838 9.86431C-151.72 23.1188 -134.5 37.3896 -112.459 51.8163C-68.3837 80.6655 -5.12768 110.073 66.8592 133.185C138.846 156.297 205.898 168.727 256.108 170.149C281.216 170.86 302.083 168.818 317.242 164C332.421 159.176 341.753 151.613 344.04 141.387C346.326 131.161 341.401 119.021 330.268 105.749C319.151 92.4945 301.931 78.2237 279.89 63.7971C235.815 34.9478 172.559 5.54075 100.572 -17.5715C28.5849 -40.6838 -38.4676 -53.1138 -88.6767 -54.5358C-113.785 -55.2469 -134.652 -53.2043 -149.811 -48.3864C-164.991 -43.5621 -174.322 -35.9993 -176.609 -25.7735Z" stroke="white" stroke-opacity="0.33"/>
<path d="M-94.5422 -5.29902C-96.3324 2.70602 -93.1553 11.9891 -85.6857 21.9824C-78.222 31.9677 -66.5313 42.578 -51.478 53.1789C-21.3762 74.3772 22.0729 95.4694 71.7329 111.413C121.393 127.357 167.823 135.122 202.737 134.798C220.197 134.636 234.749 132.451 245.38 128.275C256.019 124.096 262.644 117.96 264.434 109.955C266.224 101.95 263.047 92.6665 255.577 82.6732C248.114 72.6879 236.423 62.0776 221.37 51.4767C191.268 30.2784 147.819 9.18621 98.1587 -6.75775C48.4987 -22.7017 2.06909 -30.4661 -32.8455 -30.1421C-50.3056 -29.9801 -64.8576 -27.7953 -75.4881 -23.6194C-86.1271 -19.4401 -92.7521 -13.3041 -94.5422 -5.29902Z" stroke="white" stroke-opacity="0.33"/>
<path d="M3.12155 9.17855C2.33131 12.7124 3.81418 16.8947 7.3865 21.4967C10.9506 26.0881 16.5269 31.0047 23.7166 35.9475C38.0909 45.8295 58.8145 55.7488 82.4787 63.3464C106.143 70.9441 128.229 74.7695 144.801 74.8232C153.09 74.85 159.971 73.933 164.974 72.092C169.988 70.2467 173.017 67.5131 173.807 63.9793C174.598 60.4455 173.115 56.2632 169.542 51.6611C165.978 47.0697 160.402 42.1532 153.212 37.2104C138.838 27.3284 118.114 17.4091 94.4503 9.81146C70.7862 2.2138 48.6998 -1.61162 32.1277 -1.66531C23.8386 -1.69217 16.9578 -0.775116 11.9553 1.06588C6.94122 2.91114 3.91179 5.64473 3.12155 9.17855Z" stroke="white" stroke-opacity="0.33"/>
<g style="mix-blend-mode:soft-light">
<circle cx="1" cy="1" r="1" transform="matrix(-1 0 0 1 164 10)" fill="white"/>
</g>
<g style="mix-blend-mode:soft-light">
<circle cx="1" cy="1" r="1" transform="matrix(-1 0 0 1 26.9996 60)" fill="white"/>
</g>
<g style="mix-blend-mode:soft-light">
<circle cx="1" cy="1" r="1" transform="matrix(-1 0 0 1 183 16)" fill="white"/>
</g>
<g style="mix-blend-mode:soft-light">
<circle cx="1" cy="1" r="1" transform="matrix(-1 0 0 1 145 14)" fill="white"/>
</g>
<g style="mix-blend-mode:soft-light">
<circle cx="1.5" cy="1.5" r="1.5" transform="matrix(-1 0 0 1 158 50)" fill="white"/>
</g>
<g style="mix-blend-mode:soft-light">
<circle cx="1.5" cy="1.5" r="1.5" transform="matrix(-1 0 0 1 13.9996 47)" fill="white"/>
</g>
<g style="mix-blend-mode:soft-light">
<circle cx="1.5" cy="1.5" r="1.5" transform="matrix(-1 0 0 1 212 57)" fill="white"/>
</g>
<g style="mix-blend-mode:soft-light">
<circle cx="1.5" cy="1.5" r="1.5" transform="matrix(-1 0 0 1 270 12)" fill="white"/>
</g>
<defs>
<filter id="filter0_f_13744_115464" x="-253" y="-229" width="683" height="531" filterUnits="userSpaceOnUse" color-interpolation-filters="sRGB">
<feFlood flood-opacity="0" result="BackgroundImageFix"/>
<feBlend mode="normal" in="SourceGraphic" in2="BackgroundImageFix" result="shape"/>
<feGaussianBlur stdDeviation="50" result="effect1_foregroundBlur_13744_115464"/>
</filter>
<filter id="filter1_f_13744_115464" x="-192" y="-138" width="427" height="349" filterUnits="userSpaceOnUse" color-interpolation-filters="sRGB">
<feFlood flood-opacity="0" result="BackgroundImageFix"/>
<feBlend mode="normal" in="SourceGraphic" in2="BackgroundImageFix" result="shape"/>
<feGaussianBlur stdDeviation="50" result="effect1_foregroundBlur_13744_115464"/>
</filter>
<filter id="filter2_f_13744_115464" x="-192" y="-118" width="460" height="309" filterUnits="userSpaceOnUse" color-interpolation-filters="sRGB">
<feFlood flood-opacity="0" result="BackgroundImageFix"/>
<feBlend mode="normal" in="SourceGraphic" in2="BackgroundImageFix" result="shape"/>
<feGaussianBlur stdDeviation="50" result="effect1_foregroundBlur_13744_115464"/>
</filter>
</defs>
</svg>
