<svg width="183" height="80" viewBox="0 0 183 80" fill="none" xmlns="http://www.w3.org/2000/svg">
<g opacity="0.5">
<mask id="mask0_14018_88881" style="mask-type:alpha" maskUnits="userSpaceOnUse" x="-18" y="0" width="201" height="80">
<rect width="200" height="79" transform="translate(-17.8516 0.5)" fill="url(#paint0_radial_14018_88881)"/>
</mask>
<g mask="url(#mask0_14018_88881)">
<path d="M70.7891 -88.7109L70.7891 77.2377" stroke="#2E2E32"/>
<path d="M35.6328 -88.7109L35.6328 77.2377" stroke="#2E2E32"/>
<path d="M18.207 -88.7109L18.207 77.2377" stroke="#2E2E32"/>
<path d="M140.797 -88.7109L140.797 77.2377" stroke="#2E2E32"/>
<path d="M105.641 -88.7109L105.641 77.2377" stroke="#2E2E32"/>
<path d="M88.2109 -88.7109L88.211 77.2377" stroke="#2E2E32"/>
<path d="M53.0547 -88.7109L53.0547 77.2377" stroke="#2E2E32"/>
<path d="M158.219 -88.7109L158.219 77.2377" stroke="#2E2E32"/>
<path d="M123.062 -88.7109L123.063 79.7099" stroke="#2E2E32"/>
<path d="M-18.8516 8.06055L181.148 8.06052" stroke="#2E2E32"/>
<path opacity="0.6" d="M-18.8516 43.3965L181.148 43.3965" stroke="#2E2E32"/>
<path opacity="0.15" d="M-18.8516 79.0557L181.148 79.0556" stroke="#2E2E32"/>
<path d="M-18.8516 25.6484L181.148 25.6484" stroke="#2E2E32"/>
<path opacity="0.35" d="M-18.8516 60.9854L181.148 60.9853" stroke="#2E2E32"/>
</g>
</g>
<defs>
<radialGradient id="paint0_radial_14018_88881" cx="0" cy="0" r="1" gradientUnits="userSpaceOnUse" gradientTransform="translate(100 27) rotate(90) scale(30 52)">
<stop stop-color="white"/>
<stop offset="1" stop-color="white" stop-opacity="0"/>
</radialGradient>
</defs>
</svg>
