<?xml version="1.0" standalone="no"?>
<!DOCTYPE svg PUBLIC "-//W3C//DTD SVG 20010904//EN"
 "http://www.w3.org/TR/2001/REC-SVG-20010904/DTD/svg10.dtd">
<svg version="1.0" xmlns="http://www.w3.org/2000/svg"
 width="700.000000pt" height="700.000000pt" viewBox="0 0 700.000000 700.000000"
 preserveAspectRatio="xMidYMid meet">
<metadata>
Created by potrace 1.14, written by Peter Selinger 2001-2017
</metadata>
<g transform="translate(0.000000,700.000000) scale(0.100000,-0.100000)"
fill="#000000" stroke="none">
<path d="M1310 6970 c-220 -39 -458 -139 -640 -268 -121 -86 -286 -251 -372
-372 -121 -171 -222 -402 -262 -603 -35 -170 -37 -306 -34 -2337 l4 -2005 22
-99 c74 -338 219 -603 454 -832 123 -120 211 -185 368 -271 147 -82 384 -152
575 -173 81 -8 645 -10 2135 -8 2241 4 2075 -1 2310 68 539 159 969 624 1090
1178 40 184 41 243 37 2322 -3 1996 -3 2005 -25 2115 -47 248 -147 477 -291
670 -226 304 -556 516 -944 608 l-92 21 -2115 3 c-2023 1 -2120 1 -2220 -17z
m1542 -2487 l3 -766 694 766 694 767 438 0 c277 0 439 -4 439 -10 0 -7 -1346
-1449 -1603 -1717 l-40 -42 54 -59 c30 -33 428 -448 884 -921 583 -604 831
-868 833 -886 l3 -25 -433 1 -433 1 -765 803 -765 804 -5 -802 -5 -802 -347
-3 -348 -2 0 1363 c0 750 -3 1574 -7 1830 l-6 467 356 0 357 0 2 -767z"/>
</g>
</svg>
